<svg width="20" height="20" viewBox="0 0 20 20" fill="none" xmlns="http://www.w3.org/2000/svg">
<g id="Group">
<path id="Vector" d="M10 12.8201C11.55 12.8201 12.82 11.5501 12.82 10.0001C12.82 8.45005 11.55 7.18005 10 7.18005C8.45 7.18005 7.17999 8.45005 7.17999 10.0001C7.17999 11.5501 8.45 12.8201 10 12.8201Z" fill="#08364F"/>
<path id="Vector_2" d="M15.14 0H4.85999C2.17999 0 0 2.18 0 4.86V15.14C0 17.82 2.17999 20 4.85999 20H15.14C17.82 20 20 17.82 20 15.14V4.86C20 2.18 17.82 0 15.14 0ZM15.15 5.91C14.58 5.91 14.12 5.45 14.12 4.89C14.12 4.32 14.58 3.86 15.15 3.86C15.71 3.86 16.17 4.32 16.17 4.89C16.17 5.45 15.71 5.91 15.15 5.91ZM10 5.68C12.38 5.68 14.32 7.62 14.32 10C14.32 12.38 12.38 14.32 10 14.32C7.62 14.32 5.67999 12.38 5.67999 10C5.67999 7.62 7.62 5.68 10 5.68Z" fill="#08364F"/>
</g>
</svg>
