<svg width="36" height="36" viewBox="0 0 36 36" fill="none" xmlns="http://www.w3.org/2000/svg">
<g clip-path="url(#clip0_2_54)">
<path d="M21.7473 28.6119C22.3289 28.6119 22.7078 27.9837 22.4194 27.4787C22.4174 27.4751 22.4153 27.4715 22.4132 27.4678C21.9105 26.5972 20.9935 26.1157 20.055 26.1273C19.9013 24.9596 19.2452 23.9504 18.3106 23.3243C18.9333 22.1799 19.024 20.7654 18.4312 19.494C17.6528 17.8249 15.9285 16.8993 14.1942 17.057C13.4736 15.5863 11.9291 14.5928 10.162 14.6795C8.05057 14.7831 6.31877 16.4571 6.14124 18.5635C6.09546 19.1065 6.15459 19.6292 6.29677 20.1164C5.72295 20.608 5.35831 21.3363 5.35831 22.1511C5.35831 22.3661 5.38432 22.575 5.43213 22.7754C3.86993 23.1772 2.67764 24.4982 2.46319 26.1273C1.5248 26.1157 0.607713 26.5972 0.105049 27.4678C0.10294 27.4715 0.100901 27.4751 0.0987914 27.4787C-0.18963 27.9837 0.189283 28.6119 0.770908 28.6119H21.7473Z" fill="#DAD2FF"/>
<path d="M22.4191 27.4788C22.4177 27.4753 22.4155 27.471 22.4134 27.4675C21.9107 26.5971 20.9931 26.1154 20.0552 26.1274C19.9012 24.9595 19.2452 23.9505 18.3107 23.324C18.9337 22.18 19.0237 20.7653 18.4309 19.4941C18.1455 18.8824 17.7327 18.3698 17.2391 17.9753C17.1788 19.0831 16.931 20.141 16.5267 21.1177C16.1119 20.6692 15.5186 20.388 14.8595 20.388C13.6053 20.388 12.5887 21.4047 12.5887 22.6589C12.5887 23.0463 12.6859 23.411 12.8571 23.7301C12.2251 23.8882 11.7414 24.4196 11.6533 25.0764C10.9439 24.8967 10.1786 25.2204 9.82828 25.8986C9.67205 26.2011 9.62128 26.53 9.66206 26.8438C9.00984 26.9834 8.33337 27.0575 7.63945 27.0575C5.77688 27.0575 4.03805 26.5281 2.56571 25.6112C2.52071 25.7793 2.48625 25.9515 2.46305 26.1273C1.52508 26.1153 0.607505 26.597 0.105474 27.4675C0.103365 27.471 0.101256 27.4752 0.0991463 27.4787C-0.189838 27.9836 0.189146 28.6114 0.771333 28.6114H21.7476C22.3291 28.6115 22.708 27.9836 22.4191 27.4788Z" fill="#C3B9F9"/>
<path d="M5.43645 25.8171C5.30672 25.8171 5.19077 25.8947 5.13783 26.0132C5.02427 26.2673 4.7696 26.4449 4.4738 26.4449C4.17792 26.4449 3.92325 26.2673 3.8097 26.0132C3.75675 25.8947 3.64088 25.8171 3.51108 25.8171C3.27335 25.8171 3.11768 26.0625 3.21492 26.2794C3.4305 26.7603 3.91355 27.0961 4.47373 27.0961C5.03391 27.0961 5.51695 26.7603 5.73253 26.2794C5.82977 26.0625 5.6741 25.8171 5.43645 25.8171Z" fill="#EAE9FF"/>
<path d="M22.4189 27.4787C22.4175 27.4752 22.4154 27.471 22.4133 27.4675C21.9106 26.597 20.993 26.1154 20.055 26.1273C19.9833 25.5824 19.8026 25.0727 19.5347 24.6205C19.3569 24.9509 19.156 25.2669 18.935 25.5672C18.6487 25.0881 18.1252 24.7672 17.5265 24.7672C16.6208 24.7672 15.8866 25.5014 15.8866 26.4072C15.8866 26.9459 16.1464 27.424 16.5475 27.7229C15.8669 28.1236 15.122 28.4266 14.3315 28.6116H21.7474C22.3289 28.6115 22.7079 27.9836 22.4189 27.4787Z" fill="#AB97F2"/>
<path d="M5.59273 27.549C11.964 33.9202 22.3289 33.8642 28.6299 27.3809C34.7714 21.0618 34.6954 10.9093 28.4648 4.67804C27.025 3.23804 25.3812 2.12626 23.6263 1.34277C23.1194 1.11643 22.6814 1.76197 23.0747 2.15383C23.0813 2.16043 23.088 2.16704 23.0946 2.17365C28.5645 7.64355 28.6188 16.4789 23.2559 22.0154C17.7679 27.6812 8.78773 27.7922 3.16758 22.2574C3.1372 22.2274 3.10697 22.1974 3.07688 22.1672C2.68411 21.7735 2.03717 22.2176 2.26442 22.7252C3.04749 24.4745 4.15688 26.1131 5.59273 27.549Z" fill="#FFAF40"/>
<path d="M28.6297 27.3811C22.329 33.864 11.9635 33.9202 5.59253 27.5492C4.15675 26.1134 3.04722 24.4744 2.26464 22.725C2.03683 22.2181 2.68371 21.7737 3.07675 22.1675C3.10699 22.1977 3.13722 22.2272 3.16746 22.2575C5.1348 24.1946 7.51347 25.4405 10.0103 25.9981C12.1295 27.1688 14.5665 27.8347 17.1589 27.8347C25.3405 27.8347 31.9731 21.2021 31.9731 13.0205C31.9731 11.3998 31.7129 9.84027 31.2313 8.38058C34.5212 14.4415 33.6655 22.1998 28.6297 27.3811Z" fill="#FF993A"/>
<path d="M35.2292 30.7213C35.8109 30.7213 36.1898 30.0931 35.9014 29.5881C35.8993 29.5845 35.8972 29.5809 35.8951 29.5772C35.3924 28.7066 34.4754 28.2251 33.537 28.2367C33.3833 27.069 32.7272 26.0598 31.7926 25.4337C32.4153 24.2893 32.506 22.8748 31.9131 21.6034C31.1348 19.9343 29.4104 19.0088 27.6761 19.1664C26.9556 17.6957 25.4111 16.7022 23.6439 16.7889C21.5325 16.8925 19.8007 18.5665 19.6232 20.6729C19.5774 21.2159 19.6365 21.7386 19.7787 22.2258C19.2049 22.7174 18.8402 23.4458 18.8402 24.2605C18.8402 24.4756 18.8663 24.6844 18.9141 24.8848C17.3519 25.2866 16.1596 26.6076 15.9451 28.2367C15.0067 28.2251 14.0896 28.7066 13.587 29.5772C13.5849 29.5809 13.5828 29.5845 13.5807 29.5881C13.2923 30.0931 13.6712 30.7213 14.2528 30.7213H35.2292Z" fill="#EAE9FF"/>
<path d="M35.901 29.5882C35.8996 29.5847 35.8975 29.5805 35.8954 29.5769C35.3926 28.7065 34.4751 28.2248 33.5371 28.2368C33.3831 27.0689 32.7271 26.0599 31.7926 25.4334C32.4156 24.2894 32.5056 22.8747 31.9129 21.6035C31.6274 20.9918 31.2147 20.4792 30.7211 20.0847C30.6608 21.1925 30.4129 22.2504 30.0087 23.2272C29.5938 22.7786 29.0005 22.4975 28.3414 22.4975C27.0873 22.4975 26.0706 23.5141 26.0706 24.7683C26.0706 25.1558 26.1679 25.5204 26.339 25.8395C25.707 25.9976 25.2234 26.529 25.1352 27.1858C24.4258 27.0061 23.6606 27.3298 23.3102 28.0081C23.154 28.3105 23.1032 28.6394 23.144 28.9532C22.4918 29.0928 21.8153 29.1669 21.1214 29.1669C19.2588 29.1669 17.52 28.6375 16.0476 27.7206C16.0026 27.8887 15.9682 28.0609 15.945 28.2367C15.007 28.2248 14.0894 28.7064 13.5874 29.5769C13.5853 29.5804 13.5832 29.5846 13.5811 29.5881C13.2921 30.093 13.6711 30.7208 14.2533 30.7208H35.2296C35.811 30.7209 36.19 30.093 35.901 29.5882Z" fill="#DAD2FF"/>
<path d="M35.9009 29.5882C35.8995 29.5846 35.8974 29.5804 35.8953 29.5769C35.3925 28.7064 34.4749 28.2248 33.537 28.2367C33.4653 27.6918 33.2845 27.1821 33.0167 26.7299C32.8388 27.0603 32.638 27.3763 32.417 27.6766C32.1306 27.1975 31.6071 26.8766 31.0085 26.8766C30.1028 26.8766 29.3685 27.6108 29.3685 28.5166C29.3685 29.0553 29.6283 29.5334 30.0294 29.8323C29.3489 30.233 28.6039 30.536 27.8135 30.721H35.2293C35.8109 30.7209 36.1899 30.093 35.9009 29.5882Z" fill="#C3B9F9"/>
<path d="M26.0029 22.5483C25.8731 22.5483 25.7572 22.6259 25.7042 22.7444C25.5907 22.9985 25.336 23.1761 25.0402 23.1761C24.7443 23.1761 24.4897 22.9985 24.3761 22.7444C24.3232 22.6259 24.2073 22.5483 24.0775 22.5483C23.8398 22.5483 23.6841 22.7937 23.7813 23.0106C23.9969 23.4915 24.48 23.8273 25.0401 23.8273C25.6003 23.8273 26.0834 23.4915 26.299 23.0106C26.3963 22.7937 26.2406 22.5483 26.0029 22.5483Z" fill="#C3B9F9"/>
<path d="M28.1093 25.1777C27.9795 25.1777 27.8636 25.2553 27.8106 25.3738C27.6971 25.6279 27.4424 25.8055 27.1466 25.8055C26.8507 25.8055 26.5961 25.6279 26.4825 25.3738C26.4296 25.2553 26.3137 25.1777 26.1839 25.1777C25.9462 25.1777 25.7905 25.4231 25.8877 25.64C26.1033 26.1209 26.5864 26.4567 27.1465 26.4567C27.7068 26.4567 28.1898 26.1209 28.4053 25.64C28.5027 25.4232 28.347 25.1777 28.1093 25.1777Z" fill="#C3B9F9"/>
<path d="M22.0854 26.3015C21.9557 26.3015 21.8397 26.3791 21.7868 26.4976C21.6732 26.7517 21.4185 26.9293 21.1227 26.9293C20.8269 26.9293 20.5722 26.7517 20.4586 26.4976C20.4057 26.3791 20.2898 26.3015 20.16 26.3015C19.9223 26.3015 19.7666 26.5469 19.8638 26.7638C20.0794 27.2447 20.5625 27.5805 21.1227 27.5805C21.6828 27.5805 22.1659 27.2447 22.3815 26.7638C22.4788 26.5469 22.3231 26.3015 22.0854 26.3015Z" fill="#FAFAFF"/>
<path d="M13.1562 20.8484C13.0265 20.8484 12.9106 20.926 12.8576 21.0445C12.7441 21.2986 12.4894 21.4762 12.1936 21.4762C11.8977 21.4762 11.643 21.2986 11.5295 21.0445C11.4765 20.926 11.3607 20.8484 11.2309 20.8484C10.9931 20.8484 10.8375 21.0938 10.9347 21.3107C11.1503 21.7916 11.6333 22.1274 12.1935 22.1274C12.7538 22.1274 13.2368 21.7916 13.4523 21.3107C13.5496 21.0938 13.394 20.8484 13.1562 20.8484Z" fill="#EAE9FF"/>
<path d="M10.0302 22.6843C9.90047 22.6843 9.78452 22.7619 9.73158 22.8804C9.61802 23.1345 9.36335 23.3121 9.06755 23.3121C8.77167 23.3121 8.517 23.1345 8.40345 22.8804C8.3505 22.7619 8.23463 22.6843 8.10483 22.6843C7.8671 22.6843 7.71143 22.9297 7.80867 23.1466C8.02425 23.6275 8.5073 23.9633 9.06748 23.9633C9.62765 23.9633 10.1107 23.6275 10.3263 23.1466C10.4236 22.9297 10.2679 22.6843 10.0302 22.6843Z" fill="#AB97F2"/>
<path d="M16.3764 23.1877C16.2467 23.1877 16.1307 23.2653 16.0778 23.3838C15.9642 23.6379 15.7095 23.8155 15.4137 23.8155C15.1179 23.8155 14.8632 23.6379 14.7496 23.3838C14.6967 23.2653 14.5808 23.1877 14.451 23.1877C14.2133 23.1877 14.0576 23.4331 14.1549 23.65C14.3704 24.1309 14.8535 24.4667 15.4137 24.4667C15.9739 24.4667 16.4569 24.1309 16.6725 23.65C16.7697 23.4331 16.6141 23.1877 16.3764 23.1877Z" fill="#DAD2FF"/>
<path d="M6.91587 20.3008C7.69064 20.5314 8.43167 19.8599 8.28359 19.0652C8.25497 18.9117 8.23887 18.7942 8.24344 18.7404C8.33274 17.6787 9.2018 16.8384 10.2656 16.7864C10.3022 16.7843 10.3395 16.7836 10.376 16.7836C10.6911 16.7836 10.9935 16.8512 11.2672 16.9761C11.6735 17.1616 12.1539 17.0623 12.4726 16.7493C12.4776 16.7444 12.4826 16.7395 12.4876 16.7346C12.9869 16.2446 12.8561 15.4033 12.2267 15.0979C11.6076 14.7975 10.9046 14.6432 10.1623 14.6798C8.05078 14.7832 6.31899 16.4573 6.1411 18.5632C6.11726 18.8466 6.1219 19.1242 6.15193 19.3941C6.1996 19.822 6.50321 20.1779 6.91587 20.3008Z" fill="#EAE9FF"/>
<path d="M8.57246 17.7712C8.79591 17.4228 9.11752 17.1435 9.497 16.9721C9.87535 16.8013 10.124 16.4314 10.124 16.0162V15.9921C10.124 15.2459 9.35869 14.7309 8.67575 15.0314C7.89127 15.3767 7.22773 15.9535 6.77449 16.6749C6.40627 17.261 6.71508 18.0397 7.38214 18.2243C7.38889 18.2262 7.39571 18.2281 7.40246 18.23C7.85168 18.3541 8.32088 18.1635 8.57246 17.7712Z" fill="#FAFAFF"/>
<path d="M4.54149 26.5021L4.55485 26.4023L4.54149 26.5021Z" fill="#DAD2FF"/>
<path d="M24.2246 18.1671C24.2246 18.5639 24.4419 18.936 24.7988 19.1096C25.2183 19.3137 25.566 19.6544 25.7816 20.0947C26.1666 20.8799 26.9958 21.3463 27.8667 21.2676H27.8671C27.9304 21.2613 27.9951 21.2585 28.0584 21.2585C28.2269 21.2585 28.3926 21.2786 28.5525 21.317C29.0183 21.4286 29.5009 21.216 29.7246 20.7925L29.7345 20.7737C30.0515 20.1736 29.7229 19.4306 29.0635 19.2702C28.6141 19.1608 28.1454 19.124 27.676 19.1667C27.2646 18.3263 26.5839 17.6421 25.7465 17.226C25.0464 16.8783 24.2246 17.3856 24.2246 18.1671Z" fill="#FAFAFF"/>
<path d="M24.8339 11.0723L24.1878 10.872C23.2549 10.5827 22.5244 9.85228 22.2351 8.91931L22.0348 8.27321C22.0153 8.21014 21.9569 8.16718 21.8909 8.16718C21.8249 8.16718 21.7665 8.21014 21.7469 8.27321L21.5466 8.91931C21.2574 9.85228 20.527 10.5827 19.594 10.872L18.9479 11.0723C18.8848 11.0918 18.8418 11.1502 18.8418 11.2162C18.8418 11.2822 18.8848 11.3406 18.9479 11.3601L19.594 11.5605C20.5269 11.8497 21.2574 12.5801 21.5466 13.5131L21.7469 14.1592C21.7665 14.2223 21.8249 14.2652 21.8909 14.2652C21.9569 14.2652 22.0153 14.2223 22.0348 14.1592L22.2351 13.5131C22.5244 12.5801 23.2548 11.8497 24.1878 11.5605L24.8339 11.3601C24.8969 11.3406 24.9399 11.2822 24.9399 11.2162C24.9399 11.1502 24.8969 11.0918 24.8339 11.0723Z" fill="#FFE059"/>
<path d="M24.9397 11.2159C24.9397 11.282 24.8968 11.3404 24.8335 11.3601L24.1881 11.5605C23.255 11.8495 22.5245 12.58 22.2355 13.513L22.0351 14.1592C22.0154 14.2225 21.957 14.2654 21.8909 14.2654C21.8249 14.2654 21.7665 14.2225 21.7468 14.1592L21.5464 13.513C21.4487 13.1966 21.2996 12.9034 21.1084 12.6426C22.1244 12.4619 22.895 11.5738 22.895 10.5065C22.895 10.3286 22.8739 10.1556 22.8331 9.98969C23.1889 10.3975 23.6551 10.7069 24.1881 10.8721L24.8335 11.0725C24.8968 11.0922 24.9397 11.1498 24.9397 11.2159Z" fill="#FFC751"/>
<path d="M12.0106 30.5467L11.3645 30.3464C10.4315 30.0571 9.70109 29.3267 9.41182 28.3937L9.2115 27.7476C9.19195 27.6845 9.13359 27.6416 9.06757 27.6416C9.00155 27.6416 8.94319 27.6845 8.92364 27.7476L8.72332 28.3937C8.43406 29.3267 7.70365 30.0571 6.77067 30.3464L6.12457 30.5467C6.0615 30.5662 6.01854 30.6246 6.01854 30.6906C6.01854 30.7566 6.0615 30.815 6.12457 30.8345L6.77067 31.0349C7.70365 31.3241 8.43406 32.0545 8.72332 32.9875L8.92364 33.6336C8.94319 33.6967 9.00155 33.7396 9.06757 33.7396C9.13359 33.7396 9.19195 33.6967 9.2115 33.6336L9.41182 32.9875C9.70109 32.0545 10.4315 31.3241 11.3645 31.0349L12.0106 30.8345C12.0736 30.815 12.1166 30.7566 12.1166 30.6906C12.1166 30.6246 12.0736 30.5662 12.0106 30.5467Z" fill="#DAD2FF"/>
<path d="M12.1164 30.6903C12.1164 30.7564 12.0735 30.8148 12.0102 30.8345L11.3648 31.0349C10.4317 31.3238 9.70116 32.0544 9.41217 32.9874L9.21178 33.6336C9.1921 33.6969 9.13374 33.7398 9.06764 33.7398C9.00155 33.7398 8.94319 33.6969 8.9235 33.6336L8.72311 32.9874C8.62538 32.671 8.47631 32.3778 8.28506 32.117C9.30108 31.9363 10.0717 31.0482 10.0717 29.9809C10.0717 29.803 10.0506 29.63 10.0098 29.4641C10.3656 29.8719 10.8318 30.1813 11.3648 30.3465L12.0102 30.5469C12.0735 30.5666 12.1164 30.6242 12.1164 30.6903Z" fill="#C3B9F9"/>
<path d="M22.7772 19.5109L22.1311 19.3106C21.1982 19.0214 20.4677 18.2909 20.1784 17.358L19.9781 16.7119C19.9586 16.6488 19.9002 16.6058 19.8342 16.6058C19.7682 16.6058 19.7098 16.6488 19.6902 16.7119L19.4899 17.358C19.2007 18.2909 18.4703 19.0214 17.5373 19.3106L16.8912 19.5109C16.8281 19.5305 16.7851 19.5888 16.7851 19.6549C16.7851 19.7209 16.8281 19.7792 16.8912 19.7988L17.5373 19.9991C18.4703 20.2884 19.2007 21.0188 19.4899 21.9518L19.6902 22.5979C19.7098 22.6609 19.7682 22.7039 19.8342 22.7039C19.9002 22.7039 19.9586 22.6609 19.9781 22.5979L20.1784 21.9518C20.4677 21.0188 21.1981 20.2884 22.1311 19.9991L22.7772 19.7988C22.8402 19.7792 22.8832 19.7209 22.8832 19.6549C22.8832 19.5888 22.8402 19.5305 22.7772 19.5109Z" fill="#FFE059"/>
<path d="M22.883 19.6545C22.883 19.7206 22.8401 19.779 22.7768 19.7986L22.1314 19.999C21.1983 20.288 20.4678 21.0186 20.1788 21.9516L19.9784 22.5978C19.9587 22.6611 19.9003 22.704 19.8342 22.704C19.7682 22.704 19.7098 22.6611 19.6901 22.5978L19.4897 21.9516C19.392 21.6352 19.2429 21.342 19.0517 21.0811C20.0677 20.9004 20.8383 20.0124 20.8383 18.9451C20.8383 18.7672 20.8172 18.5942 20.7764 18.4283C21.1322 18.8361 21.5984 19.1454 22.1314 19.3107L22.7768 19.5111C22.8401 19.5308 22.883 19.5884 22.883 19.6545Z" fill="#FFC751"/>
<path d="M15.1056 33.1643C15.2161 33.0914 15.2161 32.9298 15.1056 32.857C14.8203 32.669 14.5495 32.4503 14.298 32.2008C14.0465 31.9513 13.8262 31.6825 13.6368 31.3994C13.5634 31.2897 13.4004 31.2897 13.3271 31.3994C13.1378 31.6825 12.9174 31.9513 12.6659 32.2008C12.4144 32.4503 12.1436 32.669 11.8583 32.857C11.7477 32.9298 11.7477 33.0914 11.8583 33.1643C12.1436 33.3522 12.4144 33.5709 12.6659 33.8204C12.9174 34.07 13.1377 34.3388 13.3271 34.6219C13.4005 34.7316 13.5634 34.7316 13.6368 34.6219C13.8261 34.3387 14.0465 34.07 14.298 33.8204C14.5495 33.5709 14.8203 33.3522 15.1056 33.1643Z" fill="#DAD2FF"/>
<path d="M15.1057 33.1642C14.8204 33.3522 14.5496 33.5708 14.2981 33.8204C14.0465 34.0701 13.8262 34.3388 13.6368 34.6219C13.5634 34.7315 13.4007 34.7315 13.3272 34.6219C13.1378 34.3388 12.9176 34.0701 12.666 33.8204C12.6333 33.788 12.6001 33.756 12.5664 33.7244C12.6108 33.7281 12.6557 33.7299 12.701 33.7299C13.5643 33.7299 14.2681 33.0496 14.2971 32.1999L14.298 32.2008C14.5496 32.4505 14.8203 32.6691 15.1056 32.857C15.2161 32.9299 15.2161 33.0913 15.1057 33.1642Z" fill="#C3B9F9"/>
<path d="M17.6598 13.5669C17.7703 13.494 17.7703 13.3324 17.6598 13.2595C17.3745 13.0716 17.1037 12.8529 16.8522 12.6034C16.6007 12.3538 16.3804 12.085 16.191 11.802C16.1176 11.6923 15.9546 11.6923 15.8813 11.802C15.6919 12.0851 15.4716 12.3538 15.2201 12.6034C14.9686 12.8529 14.6978 13.0716 14.4125 13.2595C14.3019 13.3324 14.3019 13.494 14.4125 13.5669C14.6978 13.7548 14.9686 13.9735 15.2201 14.223C15.4716 14.4726 15.6919 14.7414 15.8813 15.0245C15.9547 15.1341 16.1176 15.1341 16.191 15.0245C16.3803 14.7413 16.6007 14.4726 16.8522 14.223C17.1037 13.9735 17.3745 13.7548 17.6598 13.5669Z" fill="#DAD2FF"/>
<path d="M17.6599 13.5668C17.3746 13.7548 17.1038 13.9734 16.8523 14.2231C16.6007 14.4728 16.3804 14.7414 16.191 15.0246C16.1176 15.1341 15.9549 15.1341 15.8814 15.0246C15.692 14.7415 15.4718 14.4728 15.2202 14.2231C15.1875 14.1906 15.1543 14.1586 15.1206 14.127C15.165 14.1308 15.2099 14.1326 15.2552 14.1326C16.1185 14.1326 16.8223 13.4522 16.8513 12.6025L16.8522 12.6034C17.1038 12.8531 17.3745 13.0717 17.6598 13.2597C17.7703 13.3325 17.7703 13.494 17.6599 13.5668Z" fill="#C3B9F9"/>
<path d="M34.8111 18.1238C34.9217 18.0509 34.9217 17.8893 34.8111 17.8164C34.5258 17.6285 34.255 17.4098 34.0035 17.1603C33.752 16.9107 33.5317 16.6419 33.3423 16.3588C33.269 16.2492 33.106 16.2492 33.0327 16.3588C32.8433 16.642 32.623 16.9107 32.3714 17.1603C32.1199 17.4098 31.8492 17.6285 31.5638 17.8164C31.4533 17.8893 31.4533 18.0509 31.5638 18.1238C31.8492 18.3117 32.1199 18.5304 32.3714 18.7799C32.623 19.0295 32.8432 19.2983 33.0327 19.5814C33.1061 19.691 33.269 19.691 33.3423 19.5814C33.5317 19.2982 33.752 19.0295 34.0035 18.7799C34.255 18.5304 34.5258 18.3117 34.8111 18.1238Z" fill="#DAD2FF"/>
<path d="M34.8112 18.1237C34.526 18.3116 34.2552 18.5303 34.0036 18.7799C33.752 19.0296 33.5317 19.2983 33.3424 19.5814C33.269 19.691 33.1062 19.691 33.0328 19.5814C32.8434 19.2983 32.6232 19.0296 32.3716 18.7799C32.3388 18.7474 32.3056 18.7155 32.272 18.6839C32.3164 18.6876 32.3613 18.6894 32.4066 18.6894C33.2698 18.6894 33.9737 18.0091 34.0026 17.1594C34.0031 17.1599 34.0031 17.1599 34.0035 17.1603C34.2551 17.41 34.5259 17.6286 34.8112 17.8165C34.9216 17.8893 34.9216 18.0508 34.8112 18.1237Z" fill="#C3B9F9"/>
<path d="M27.7913 17.3388L27.8163 17.3419C28.4193 17.417 28.9897 17.0383 29.1453 16.451C29.5211 15.0328 29.7102 13.5559 29.6988 12.0507C29.6953 11.6056 29.6742 11.1634 29.637 10.7239C29.4608 9.36084 29.2232 8.23331 28.9592 7.30329C28.7494 6.56395 27.9231 6.19319 27.23 6.52535C26.6871 6.78551 26.4246 7.40461 26.6027 7.97969C27.391 10.5249 27.4443 13.2486 26.7628 15.8178C26.5735 16.5314 27.0588 17.2475 27.7913 17.3388Z" fill="#FFC751"/>
<path d="M28.4506 12.0289C29.1483 12.0289 29.6967 11.4323 29.6381 10.737L29.637 10.7241C29.5337 9.92533 29.4094 9.20751 29.2711 8.56289C29.1234 7.87509 28.4232 7.45729 27.747 7.65136C27.1295 7.82861 26.7562 8.4558 26.896 9.08292C27.0272 9.67143 27.1204 10.2668 27.1757 10.8649C27.2367 11.5242 27.7885 12.0289 28.4506 12.0289Z" fill="#FFE059"/>
</g>
<defs>
<clipPath id="clip0_2_54">
<rect width="36" height="36" fill="white"/>
</clipPath>
</defs>
</svg>
