<svg width="36" height="36" viewBox="0 0 36 36" fill="none" xmlns="http://www.w3.org/2000/svg">
    <g clip-path="url(#clip0_2_36)">
        <path
            d="M6.66458 19.4914C6.66458 13.2435 11.7298 8.17822 17.978 8.17822C24.226 8.17822 29.2912 13.2435 29.2912 19.4914V25.3625H6.66458V19.4914Z"
            fill="#FDC202" />
        <path
            d="M19.2637 8.25018C13.6208 8.88849 9.2359 13.6783 9.2359 19.4914V25.3628H6.66455V19.4914C6.66455 13.2435 11.7298 8.17822 17.978 8.17822C18.4128 8.17822 18.8418 8.20239 19.2637 8.25018Z"
            fill="#F0A70A" />
        <path
            d="M17.9777 0.5625C17.6734 0.5625 17.4268 0.809143 17.4268 1.11346V3.6601C17.4268 3.96442 17.6734 4.21133 17.9777 4.21133C18.282 4.21133 18.5287 3.96442 18.5287 3.6601V1.11346C18.5287 0.809143 18.282 0.5625 17.9777 0.5625V0.5625Z"
            fill="#F0A70A" />
        <path
            d="M11.4453 2.71743C11.3412 2.43151 11.0248 2.28402 10.7392 2.38812C10.4532 2.49221 10.3058 2.80834 10.4098 3.09426L11.2808 5.48763C11.3849 5.77355 11.7013 5.92077 11.9869 5.81695C12.2729 5.71285 12.4203 5.39645 12.3163 5.11053L11.4453 2.71743Z"
            fill="#F0A70A" />
        <path
            d="M5.44964 6.59755C5.25381 6.36464 4.90637 6.33416 4.67346 6.52971C4.44027 6.72527 4.40979 7.07299 4.60534 7.3059L6.24231 9.2568C6.35135 9.38671 6.50735 9.45373 6.66473 9.45373C7.12835 9.45373 7.38846 8.90825 7.08661 8.54845L5.44964 6.59755Z"
            fill="#F0A70A" />
        <path
            d="M3.7083 13.3997L1.5028 12.1264C1.23913 11.9743 0.90212 12.0646 0.750234 12.328C0.598073 12.5917 0.688161 12.9287 0.951833 13.0809L3.15734 14.3542C3.42129 14.5063 3.75802 14.4157 3.9099 14.1523C4.06206 13.8889 3.9717 13.5519 3.7083 13.3997Z"
            fill="#F0A70A" />
        <path
            d="M25.2167 2.38808C24.9305 2.28399 24.6143 2.43176 24.5105 2.71767L23.6393 5.11077C23.5352 5.39669 23.683 5.71282 23.9686 5.81692C24.2545 5.92101 24.5709 5.7738 24.675 5.4876L25.546 3.09451C25.6501 2.80831 25.5026 2.49218 25.2167 2.38808Z"
            fill="#F0A70A" />
        <path
            d="M31.2826 6.52974C31.0494 6.33419 30.702 6.36468 30.5064 6.59759L28.8694 8.54848C28.5676 8.90828 28.8274 9.45376 29.291 9.45376C29.4484 9.45376 29.6044 9.38674 29.7135 9.25683L31.3504 7.30593C31.546 7.07302 31.5158 6.7253 31.2826 6.52974Z"
            fill="#F0A70A" />
        <path
            d="M35.2053 12.328C35.0531 12.0646 34.7161 11.9742 34.4527 12.1264L32.2472 13.3997C31.9836 13.5519 31.8935 13.8889 32.0456 14.1523C32.1978 14.4162 32.5348 14.506 32.7982 14.3541L35.0037 13.0808C35.2671 12.9287 35.3575 12.5917 35.2053 12.328Z"
            fill="#F0A70A" />
        <path
            d="M31.531 16.3546C29.7463 16.3406 28.2002 17.3648 27.4584 18.859C27.4145 18.9471 27.2969 18.9611 27.2315 18.8875C26.7094 18.3009 25.9492 17.9309 25.1021 17.9309C23.528 17.9309 22.252 19.207 22.252 20.781C22.252 20.9403 22.2654 21.0966 22.291 21.2485C22.3047 21.3325 22.241 21.4086 22.1558 21.4086H18.0145C16.9368 21.4086 16.026 22.2537 15.9964 23.331C15.9659 24.4485 16.8626 25.3642 17.9734 25.3642H31.4948C33.9579 25.3642 35.9593 23.3878 35.9992 20.9343C36.0395 18.4464 34.0189 16.3741 31.531 16.3546Z"
            fill="#A0CAFE" />
        <path
            d="M35.9998 20.8597C35.9998 23.347 33.9824 25.3644 31.4943 25.3644H17.9734C16.8808 25.3644 15.9956 24.4783 15.9956 23.3868C15.9956 23.0693 16.0706 22.7697 16.2035 22.5038C16.2939 22.517 16.3873 22.5236 16.4812 22.5236H30.0023C32.4905 22.5236 34.5078 20.507 34.5078 18.0186C34.5078 17.8374 34.4969 17.658 34.4754 17.4817C35.4098 18.3068 35.9998 19.5144 35.9998 20.8597Z"
            fill="#81B8FD" />
        <path
            d="M4.02336 19.1883C5.76387 19.107 7.28547 20.0796 8.007 21.5218C8.04985 21.6081 8.16603 21.6259 8.2303 21.5542C8.71974 21.0071 9.43083 20.6624 10.2227 20.6624C11.6992 20.6624 12.8959 21.8594 12.8959 23.3359C12.8959 23.4823 12.8838 23.626 12.861 23.7661C12.8473 23.8493 12.9116 23.9248 12.9962 23.9248H24.5307C25.5708 23.9248 26.4473 24.776 26.4275 25.8158C26.4086 26.8238 25.5851 27.6352 24.5727 27.6352H4.22605C1.82609 27.6352 -0.106681 25.6343 0.00510494 23.2093C0.104806 21.0458 1.85987 19.2894 4.02336 19.1883Z"
            fill="#C0DBFF" />
        <path
            d="M26.4276 25.7802C26.4276 26.805 25.5968 27.6353 24.5728 27.6353H4.22562C1.8924 27.6353 0 25.7434 0 23.4097C0 21.2283 1.65289 19.4337 3.7738 19.2082C3.47635 19.7869 3.30798 20.4431 3.30798 21.1388C3.30798 23.472 5.19983 25.3644 7.5336 25.3644H26.3801C26.4117 25.4982 26.4276 25.6369 26.4276 25.7802Z"
            fill="#A0CAFE" />
        <path
            d="M24.5114 23.9253C22.2043 23.9253 19.9991 25.0237 19.154 27.1242C19.1018 27.2539 18.9353 27.2934 18.8301 27.2014C16.4637 25.1327 12.6539 27.1536 13.162 30.3375C13.1823 30.4641 13.087 30.5792 12.959 30.5792H10.3608C9.01715 30.5792 7.89188 31.6792 7.91742 33.0225C7.94241 34.3244 9.00561 35.3722 10.3135 35.3722H24.3233C31.8443 35.3722 32.3288 23.9253 24.5114 23.9253Z"
            fill="#E6F1FF" />
        <path
            d="M29.0226 25.9373C28.3077 25.6311 27.4686 25.4561 26.5034 25.4561C24.1966 25.4561 21.9913 26.5545 21.1465 28.6556C21.0943 28.7847 20.9276 28.8246 20.8224 28.732C18.4562 26.6633 14.6456 28.6842 15.154 31.8689C15.1746 31.9952 15.079 32.1106 14.9513 32.1106H12.3528C11.0091 32.1106 9.88385 33.2095 9.90939 34.5531C9.91461 34.8368 9.96982 35.1085 10.0659 35.3598C8.87448 35.2373 7.94147 34.2416 7.91785 33.0222C7.8923 31.6785 9.01703 30.5788 10.3612 30.5788H12.9589C13.0875 30.5788 13.1822 30.4643 13.1624 30.3371C12.6541 27.1533 16.4638 25.1323 18.83 27.201C18.9352 27.2936 19.1019 27.2538 19.1541 27.1247C19.9998 25.0236 22.2042 23.9252 24.5119 23.9252C26.599 23.9252 28.0945 24.7415 29.0226 25.9373Z"
            fill="#D9E9FF" />
    </g>
    <defs>
        <clipPath id="clip0_2_36">
            <rect width="36" height="36" fill="white" />
        </clipPath>
    </defs>
</svg>
